<?xml version="1.0" encoding="utf-8"?>
<!-- Generator: Adobe Illustrator 13.0.0, SVG Export Plug-In . SVG Version: 6.00 Build 14948)  -->
<!DOCTYPE svg PUBLIC "-//W3C//DTD SVG 1.1//EN" "http://www.w3.org/Graphics/SVG/1.1/DTD/svg11.dtd">
<svg version="1.1" xmlns="http://www.w3.org/2000/svg" xmlns:xlink="http://www.w3.org/1999/xlink" x="0px" y="0px"
	 width="634.531px" height="557.67px" viewBox="0 0 634.531 557.67" enable-background="new 0 0 634.531 557.67"
	 xml:space="preserve">
<g id="Ebene_2">
	<path d="M470.765,483.835c0,4.583-5.562,12.5-12.422,12.5c0,0-252.078,2.75-266.328-0.25s-37.24-15.583-40.495-17.75
		s-7.255-5.834-7.255-14.167s11.921-8.319,14.627-7.576s26.706,13.243,36.372,14.843c4.001,0.662,263.079-0.1,263.079-0.1
		C465.204,471.335,470.765,479.252,470.765,483.835z"/>
	<circle cx="213.599" cy="519.335" r="18.333"/>
	<circle fill="#9CDAF1" cx="213.599" cy="519.002" r="7"/>
	<circle cx="414.265" cy="519.335" r="18.333"/>
	<circle fill="#9CDAF1" cx="414.265" cy="519.002" r="7"/>
</g>
<g id="Ebene_1">
	<path d="M634.062,236.95l0.469-2.328c-52.246-10.447-105.862-10.554-138.301-9.205c5.327-19.199,6.932-41.291,6.932-65.926
		c0-35.332-13.272-63.6-34.824-85.105c3.767-12.155,8.796-39.149-5.021-73.71c0,0-24.382-7.741-79.524,29.167
		c-21.604-5.397-44.593-8.063-67.616-8.063c-25.332,0-50.931,3.227-74.804,9.773c-56.905-38.82-82.025-30.868-82.025-30.868
		c-16.398,41.007-6.26,71.367-3.18,78.908c-19.272,20.8-31.04,47.354-31.04,79.906c0,24.576,2.798,46.625,9.632,65.787
		c-32.713-1.19-84.373-0.732-134.757,9.342l0.463,2.329c50.688-10.138,102.674-10.489,135.188-9.26
		c1.505,3.968,3.184,7.814,5.064,11.534c-32.152,1.035-87.055,5.135-139.67,19.979l0.649,2.278
		c53.031-14.95,108.409-18.946,140.25-19.922c19.211,35.812,57.086,58.938,124.467,66.2c-9.563,6.428-19.32,17.354-23.272,35.837
		c-13.032,6.233-54.288,21.449-79.041-21.124c0,0-13.855-25.333-40.377-27.314c0,0-25.727-0.396-1.775,16.031
		c0,0,17.214,8.11,29.091,38.596c0,0,15.494,51.993,90.263,35.312v53.707c0,0-1.58,18.996-18.996,25.325
		c0,0-10.29,7.124,0.796,11.076c0,0,48.273,3.959,48.273-35.608V381.04c0,0-1.915-23.227,9.494-31.298v96.188
		c0,0-0.788,22.95-12.66,31.657c0,0-7.919,14.24,9.495,10.289c0,0,33.237-4.748,34.822-43.527l0.753-97.346h7.989l0.76,97.346
		c1.58,38.779,34.82,43.527,34.82,43.527c17.408,3.951,9.494-10.289,9.494-10.289c-11.87-8.707-12.66-31.657-12.66-31.657v-95.36
		c11.403,8.881,9.495,30.468,9.495,30.468V439.6c0,39.569,48.273,35.608,48.273,35.608c11.077-3.951,0.796-11.075,0.796-11.075
		c-17.414-6.33-18.996-25.326-18.996-25.326V362.04c0-29.937-12.604-45.788-24.933-54.156
		c71.859-7.126,106.344-30.328,122.233-66.38c31.476,0.865,88.118,4.7,142.301,19.982l0.646-2.278
		c-53.873-15.195-110.144-19.127-141.938-20.054c1.507-3.644,2.82-7.431,3.988-11.325c32.274-1.343,86.146-1.324,138.592,9.153
		L634.062,236.95z"/>
	<path fill="#F4CBB2" d="M432.882,157.833c15.478,14.021,24.529,30.954,24.529,49.196c0,85.182-63.498,87.489-141.818,87.489
		c-78.335,0-141.825-11.796-141.825-87.489c0-18.123,8.926-34.948,24.212-48.914c25.499-23.272,68.651-10.949,117.612-10.949
		c48.739-0.007,91.746-12.456,117.28,10.657L432.882,157.833z"/>
	<path fill="#FFFFFF" d="M268.418,211.364c0,23.464-13.212,42.479-29.509,42.479S209.4,234.825,209.4,211.364
		c0-23.459,13.212-42.47,29.509-42.47C255.207,168.912,268.418,187.909,268.418,211.364z M426.745,211.364
		c0,23.464-13.212,42.479-29.51,42.479c-16.297,0-29.51-19.018-29.51-42.479c0-23.459,13.213-42.47,29.51-42.47
		C413.533,168.912,426.745,187.909,426.745,211.364z"/>
	<path fill="#AD5C51" d="M258.962,211.901c0,15.641-8.818,28.313-19.674,28.313c-10.854,0-19.672-12.674-19.672-28.313
		c0-15.646,8.812-28.324,19.672-28.324c10.849,0,19.667,12.675,19.667,28.316L258.962,211.901z M417.271,211.901
		c0,15.641-8.818,28.313-19.674,28.313c-10.854,0-19.672-12.674-19.672-28.313c0-15.646,8.811-28.324,19.672-28.324
		c10.85,0,19.668,12.675,19.668,28.316L417.271,211.901z"/>
	<circle fill="#AD5C51" cx="316.036" cy="249.089" r="7.379"/>
	<path fill="#AD5C51" d="M298.816,267.751c-0.437-1.238,0.215-2.591,1.444-3.027c1.234-0.436,2.592,0.216,3.024,1.443
		c1.901,5.362,6.987,8.964,12.661,8.964s10.759-3.601,12.661-8.964c0.437-1.236,1.789-1.879,3.025-1.443
		c1.236,0.438,1.879,1.789,1.444,3.027c-2.562,7.25-9.455,12.12-17.132,12.12c-7.678,0-14.554-4.847-17.119-12.105L298.816,267.751z
		"/>
	<path fill="#C3E4D8" d="M135.194,301.501c0,1.969-2.307,3.559-5.147,3.559c-2.838,0-5.146-1.59-5.146-3.559
		c0-1.971,2.309-3.565,5.146-3.565c2.841,0,5.147,1.594,5.147,3.571V301.501z M149.445,309.415c0,1.969-2.307,3.558-5.147,3.558
		c-2.839,0-5.146-1.589-5.146-3.558c0-1.971,2.309-3.566,5.146-3.566c2.841,0,5.147,1.594,5.147,3.571V309.415z M158.152,319.71
		c0,1.968-2.307,3.558-5.147,3.558c-2.838,0-5.146-1.59-5.146-3.558c0-1.972,2.309-3.565,5.146-3.565
		c2.841,0,5.147,1.593,5.147,3.57V319.71z M166.066,331.58c0,1.969-2.308,3.559-5.147,3.559c-2.838,0-5.146-1.59-5.146-3.559
		c0-1.971,2.309-3.566,5.146-3.566c2.84,0,5.147,1.595,5.147,3.571V331.58z M174.765,342.663c0,1.969-2.308,3.558-5.147,3.558
		c-2.838,0-5.146-1.589-5.146-3.558c0-1.971,2.309-3.566,5.146-3.566c2.84,0,5.147,1.594,5.147,3.571V342.663z M186.652,352.152
		c0,1.97-2.307,3.56-5.147,3.56c-2.838,0-5.146-1.59-5.146-3.56c0-1.971,2.309-3.564,5.146-3.564c2.841,0,5.147,1.593,5.147,3.571
		V352.152z M203.268,358.49c0,1.97-2.308,3.56-5.147,3.56c-2.838,0-5.146-1.59-5.146-3.56c0-1.971,2.309-3.564,5.146-3.564
		c2.84,0,5.147,1.593,5.147,3.571V358.49z M219.816,358.49c0,1.97-2.308,3.56-5.147,3.56c-2.838,0-5.146-1.59-5.146-3.56
		c0-1.971,2.309-3.564,5.146-3.564c2.84,0,5.147,1.593,5.147,3.571V358.49z M236.599,355.741c0,1.968-2.308,3.558-5.147,3.558
		c-2.838,0-5.146-1.59-5.146-3.558c0-1.973,2.309-3.566,5.146-3.566c2.84,0,5.147,1.593,5.147,3.571V355.741z"/>
	<path fill="#9CDAF1" d="M116.295,312.064l-5.141,17.91c0,0-1.341,6.476,4.762,7.622c6.371-0.124,5.846-6.081,5.404-8.016
		L116.295,312.064z"/>
</g>
</svg>
